<?xml version="1.0" standalone="no"?>
<!DOCTYPE svg PUBLIC "-//W3C//DTD SVG 20010904//EN"
 "http://www.w3.org/TR/2001/REC-SVG-20010904/DTD/svg10.dtd">
<svg version="1.0" xmlns="http://www.w3.org/2000/svg"
 width="2479.000000pt" height="2479.000000pt" viewBox="0 0 2479.000000 2479.000000"
 preserveAspectRatio="xMidYMid meet">
<metadata>
Created by potrace 1.14, written by Peter Selinger 2001-2017
</metadata>
<g transform="translate(0.000000,2479.000000) scale(0.100000,-0.100000)"
fill="#000000" stroke="none">
<path d="M13945 19335 c-373 -53 -727 -165 -1401 -445 -441 -184 -600 -233
-899 -276 -172 -25 -515 -25 -800 1 -271 25 -902 29 -1075 7 -150 -19 -363
-59 -445 -83 -229 -68 -504 -235 -1114 -678 -539 -391 -743 -525 -981 -643
-150 -74 -266 -112 -420 -137 -242 -39 -443 -83 -1295 -285 -1008 -239 -1532
-322 -2210 -351 -459 -20 -1287 -80 -1382 -101 l-23 -4 0 -7215 0 -7215 10424
0 c6707 0 10427 3 10431 10 3 5 3 3362 -1 7459 l-7 7450 -606 -6 c-1156 -11
-1941 36 -2546 153 -222 43 -476 112 -825 224 -184 59 -396 127 -470 150 -336
104 -534 200 -1127 542 -570 330 -969 509 -1506 678 -104 33 -211 72 -238 86
-87 48 -175 131 -322 302 -159 185 -237 254 -350 307 -125 60 -228 77 -487 81
-156 2 -256 -1 -325 -11z"/>
</g>
</svg>
